<svg width="152" height="32" viewBox="0 0 152 32" fill="none" xmlns="http://www.w3.org/2000/svg">
<rect width="32" height="32" rx="6" fill="#696A75"/>
<path fill-rule="evenodd" clip-rule="evenodd" d="M23 16.0424C23 12.1768 19.8656 9.04242 16 9.04242C12.1344 9.04242 9 12.1768 9 16.0424C9 19.5362 11.5594 22.4321 14.9062 22.9577V18.0665H13.1284V16.0424H14.9062V14.5002C14.9062 12.7462 15.9516 11.7765 17.5503 11.7765C18.3162 11.7765 19.1175 11.9134 19.1175 11.9134V13.6362H18.2344C17.3653 13.6362 17.0934 14.1755 17.0934 14.7299V16.0424H19.0347L18.7247 18.0665H17.0938V22.9584C20.4406 22.433 23 19.5371 23 16.0424Z" fill="white"/>
<rect x="40" width="32" height="32" rx="6" fill="#696A75"/>
<path d="M63.5 11.4218C62.9373 11.6662 62.342 11.8273 61.7328 11.8999C62.373 11.525 62.8545 10.9294 63.0869 10.2249C62.4816 10.5788 61.8205 10.8272 61.1319 10.9593C60.8419 10.6554 60.4932 10.4136 60.1069 10.2487C59.7205 10.0838 59.3047 9.99911 58.8847 9.99988C57.1841 9.99988 55.8078 11.3561 55.8078 13.028C55.8066 13.2606 55.8333 13.4924 55.8872 13.7186C54.6677 13.6615 53.4736 13.3504 52.3812 12.8053C51.2889 12.2602 50.3223 11.4931 49.5434 10.553C49.2702 11.0137 49.1257 11.5393 49.125 12.0749C49.125 13.1249 49.6728 14.053 50.5 14.5968C50.0099 14.5851 49.5299 14.4554 49.1006 14.2186V14.2561C49.1006 15.7249 50.1631 16.9468 51.5694 17.2249C51.3049 17.2954 51.0324 17.3311 50.7587 17.3311C50.5646 17.3315 50.3708 17.3126 50.1803 17.2749C50.5712 18.478 51.7091 19.353 53.0569 19.378C51.9617 20.222 50.6171 20.6782 49.2344 20.6749C48.9889 20.6745 48.7437 20.6599 48.5 20.6311C49.9066 21.5293 51.5417 22.0044 53.2106 21.9999C58.8781 21.9999 61.9744 17.3843 61.9744 13.3811C61.9744 13.2499 61.9709 13.1186 61.9647 12.9905C62.5657 12.563 63.0856 12.0318 63.5 11.4218Z" fill="white"/>
<rect x="80" width="32" height="32" rx="6" fill="#696A75"/>
<path d="M98.9166 10.1666C99.6895 10.1689 100.43 10.4769 100.977 11.0234C101.523 11.57 101.831 12.3105 101.833 13.0834V18.9166C101.831 19.6895 101.523 20.43 100.977 20.9766C100.43 21.5231 99.6895 21.8311 98.9166 21.8334H93.0834C92.3105 21.8311 91.57 21.5231 91.0234 20.9766C90.4769 20.43 90.1689 19.6895 90.1666 18.9166V13.0834C90.1689 12.3105 90.4769 11.57 91.0234 11.0234C91.57 10.4769 92.3105 10.1689 93.0834 10.1666H98.9166ZM98.9166 9H93.0834C90.8375 9 89 10.8375 89 13.0834V18.9166C89 21.1625 90.8375 23 93.0834 23H98.9166C101.162 23 103 21.1625 103 18.9166V13.0834C103 10.8375 101.162 9 98.9166 9Z" fill="white"/>
<path d="M99.7916 13.0834C99.6185 13.0834 99.4493 13.0321 99.3054 12.936C99.1615 12.8398 99.0494 12.7032 98.9832 12.5433C98.9169 12.3834 98.8996 12.2075 98.9334 12.0377C98.9671 11.868 99.0505 11.7121 99.1728 11.5897C99.2952 11.4673 99.4511 11.384 99.6209 11.3503C99.7906 11.3165 99.9665 11.3338 100.126 11.4C100.286 11.4663 100.423 11.5784 100.519 11.7223C100.615 11.8662 100.667 12.0354 100.667 12.2084C100.667 12.3234 100.644 12.4373 100.6 12.5436C100.557 12.6498 100.492 12.7464 100.411 12.8277C100.33 12.909 100.233 12.9735 100.127 13.0173C100.02 13.0612 99.9065 13.0837 99.7916 13.0834Z" fill="white"/>
<path d="M96 13.6666C96.4615 13.6666 96.9127 13.8034 97.2964 14.0598C97.6801 14.3162 97.9792 14.6807 98.1558 15.107C98.3324 15.5334 98.3786 16.0026 98.2886 16.4552C98.1986 16.9079 97.9763 17.3237 97.65 17.65C97.3237 17.9763 96.9079 18.1986 96.4552 18.2886C96.0026 18.3786 95.5334 18.3324 95.107 18.1558C94.6807 17.9792 94.3162 17.6801 94.0598 17.2964C93.8034 16.9127 93.6666 16.4615 93.6666 16C93.6672 15.3813 93.9133 14.7882 94.3507 14.3507C94.7882 13.9133 95.3813 13.6672 96 13.6666ZM96 12.5C95.3078 12.5 94.6311 12.7053 94.0555 13.0899C93.4799 13.4744 93.0313 14.0211 92.7664 14.6606C92.5015 15.3001 92.4322 16.0039 92.5673 16.6828C92.7023 17.3617 93.0356 17.9854 93.5251 18.4749C94.0146 18.9644 94.6383 19.2977 95.3172 19.4327C95.9961 19.5678 96.6999 19.4985 97.3394 19.2336C97.9789 18.9687 98.5256 18.5201 98.9101 17.9445C99.2947 17.3689 99.5 16.6922 99.5 16C99.5 15.0717 99.1313 14.1815 98.4749 13.5251C97.8185 12.8687 96.9283 12.5 96 12.5Z" fill="white"/>
<rect x="120" width="32" height="32" rx="6" fill="#696A75"/>
<path d="M143.896 12.6497C143.896 11.2434 142.862 10.1122 141.584 10.1122C139.852 10.0312 138.087 10 136.282 10H135.72C133.92 10 132.151 10.0312 130.42 10.1125C129.145 10.1125 128.111 11.25 128.111 12.6562C128.032 13.7684 127.999 14.8809 128.001 15.9934C127.998 17.1059 128.033 18.2195 128.107 19.3341C128.107 20.7403 129.142 21.8809 130.417 21.8809C132.236 21.9653 134.101 22.0028 135.998 21.9997C137.898 22.0059 139.758 21.9664 141.579 21.8809C142.857 21.8809 143.892 20.7403 143.892 19.3341C143.967 18.2184 144.001 17.1059 143.998 15.9903C144.005 14.8778 143.971 13.7643 143.896 12.6497ZM134.47 19.0591V12.9184L139.001 15.9872L134.47 19.0591Z" fill="white"/>
</svg>
